<?xml version="1.0" standalone="no"?>
<!DOCTYPE svg PUBLIC "-//W3C//DTD SVG 20010904//EN"
 "http://www.w3.org/TR/2001/REC-SVG-20010904/DTD/svg10.dtd">
<svg version="1.0" xmlns="http://www.w3.org/2000/svg"
 width="128.000000pt" height="111.000000pt" viewBox="0 0 128.000000 111.000000"
 preserveAspectRatio="xMidYMid meet">

<g transform="translate(0.000000,111.000000) scale(0.100000,-0.100000)"
fill="#000000" stroke="none">
<path d="M166 831 c-86 -149 -156 -273 -156 -276 0 -3 70 -127 156 -276 l156
-269 318 0 318 0 156 269 c86 148 156 272 156 276 0 3 -70 128 -156 276 l-157
269 -317 0 -318 0 -156 -269z m597 45 c46 -13 57 -20 53 -34 -3 -9 -32 -102
-65 -207 -32 -104 -75 -243 -95 -308 -29 -92 -41 -117 -52 -113 -8 3 -40 13
-70 22 -43 12 -54 19 -50 32 3 9 32 103 65 207 32 105 75 243 96 308 23 77 40
117 48 114 7 -2 38 -12 70 -21z m-393 -271 l-50 -51 50 -49 50 -49 0 -95 0
-96 -145 145 -145 145 142 143 143 142 3 -92 3 -92 -51 -51z m638 -193 l-143
-142 -3 92 -3 92 51 51 50 51 -50 49 -50 49 0 95 0 96 145 -145 145 -145 -142
-143z"/>
</g>
</svg>
